<svg id="Capa_1" enable-background="new 0 0 609.62 609.62" height="30" viewBox="0 0 609.62 609.62" width="30" xmlns="http://www.w3.org/2000/svg"><g><g id="Page-1_13_"><g id="_x30_14---Measuing-Plans"><path id="Shape_34_" d="m589.3 197.714h-66.946c-.305-.315-.549-.671-.884-1.016l-33.773-30.176v-70.411c0-11.223-9.098-20.321-20.321-20.321h-30.481c-11.223 0-20.321 9.098-20.321 20.321v6.757l-57.619-51.574c-7.688-6.879-19.318-6.879-27.006 0l-162.515 145.404c-.335.305-.579.66-.884 1.016h-66.946v-30.481c0-28.057-22.745-50.802-50.802-50.802s-50.802 22.745-50.802 50.802v345.451.152c.016 13.455 5.379 26.351 14.907 35.851s22.441 14.823 35.895 14.799h538.498c11.223 0 20.321-9.098 20.321-20.321v-325.13c-.001-11.223-9.099-20.321-20.321-20.321zm-152.405-101.603h30.481v52.224l-30.481-27.281zm-91.494-29.669 162.565 146.004-13.401 15.749-142.336-127.37c-3.858-3.454-9.696-3.454-13.554 0l-142.245 127.37-13.442-16.257zm30.531 314.158h-60.962v-81.283c0-5.611 4.549-10.16 10.16-10.16h40.641c5.611 0 10.16 4.549 10.16 10.16v81.283zm-10.16-111.764h-40.641c-16.834 0-30.481 13.647-30.481 30.481v81.283h-60.962c-5.611 0-10.16-4.549-10.16-10.16v-139.288l121.923-109.122 121.924 109.122v139.288c0 5.611-4.549 10.16-10.16 10.16h-60.962v-81.283c0-16.834-13.647-30.481-30.481-30.481zm-314.97-132.084c16.834 0 30.481 13.647 30.481 30.481v40.489.152.152l.203 264.169c-12.146-9.165-27.736-12.46-42.551-8.992-6.741 1.566-13.081 4.521-18.614 8.677v-304.647c0-16.834 13.646-30.481 30.481-30.481zm538.498 406.414h-538.498c-9.288.021-18.075-4.214-23.846-11.491-4.363-5.419-6.709-12.185-6.635-19.142v-.122c.023-2.371.306-4.732.843-7.041 2.636-11.072 11.281-19.717 22.353-22.353 8.946-2.186 18.4-.222 25.736 5.344 6.057 4.635 14.232 5.397 21.042 1.961 6.931-3.429 11.314-10.495 11.308-18.228v-254.059h61.866c.795 2.804 2.181 5.406 4.064 7.63l13.452 15.738c5.445 6.418 14.303 8.779 22.221 5.923v123.114c0 16.834 13.647 30.481 30.481 30.481h223.527c16.834 0 30.481-13.647 30.481-30.481v-123.133c2.173.79 4.465 1.199 6.777 1.209h1.382c5.456-.373 10.529-2.938 14.062-7.112l13.462-15.738c1.882-2.222 3.268-4.82 4.064-7.62h61.858z"/><path id="Shape_33_" d="m152.405 421.241c-11.223 0-20.321 9.098-20.321 20.321v60.962c0 11.223 9.098 20.321 20.321 20.321h386.093c11.223 0 20.321-9.098 20.321-20.321v-60.962c0-11.223-9.098-20.321-20.321-20.321zm0 81.283v-60.962h20.321v30.481c0 5.611 4.549 10.16 10.16 10.16s10.16-4.549 10.16-10.16v-30.481h20.321v10.16c0 5.611 4.549 10.16 10.16 10.16s10.16-4.549 10.16-10.16v-10.16h20.321v30.481c0 5.611 4.549 10.16 10.16 10.16s10.16-4.549 10.16-10.16v-30.481h20.321v10.16c0 5.611 4.549 10.16 10.16 10.16s10.16-4.549 10.16-10.16v-10.16h20.321v30.481c0 5.611 4.549 10.16 10.16 10.16s10.16-4.549 10.16-10.16v-30.481h20.321v10.16c0 5.611 4.549 10.16 10.16 10.16s10.16-4.549 10.16-10.16v-10.16h20.321v30.481c0 5.611 4.549 10.16 10.16 10.16s10.16-4.549 10.16-10.16v-30.481h20.321v10.16c0 5.611 4.549 10.16 10.16 10.16s10.16-4.549 10.16-10.16v-10.16h20.321v30.481c0 5.611 4.549 10.16 10.16 10.16s10.16-4.549 10.16-10.16v-30.481h20.321v60.962z"/></g></g></g></svg>