<?xml version="1.0" encoding="iso-8859-1"?>
<!-- Generator: Adobe Illustrator 19.0.0, SVG Export Plug-In . SVG Version: 6.00 Build 0)  -->
<svg version="1.1" id="Layer_1" xmlns="http://www.w3.org/2000/svg" xmlns:xlink="http://www.w3.org/1999/xlink" x="0px" y="0px"
	 viewBox="0 0 512 512" style="enable-background:new 0 0 512 512;" xml:space="preserve">
<g>
	<g>
		<path d="M495.788,91.095h-22.741V79.221c0-8.954-7.259-16.212-16.212-16.212h-8.913V19.832c0-6.605-5.354-11.959-11.959-11.959
			h-24.548c-6.605,0-11.959,5.354-11.959,11.959v43.177h-8.912c-8.954,0-16.212,7.259-16.212,16.212v11.874h-0.675
			c-8.954,0-16.212,7.259-16.212,16.212s7.259,16.212,16.212,16.212h0.675v291.668c0,2.32,0.498,4.613,1.46,6.724l33.146,72.728
			c2.634,5.78,8.401,9.489,14.753,9.489c6.351,0,12.118-3.709,14.753-9.489l33.146-72.728c0.961-2.111,1.46-4.403,1.46-6.724V123.52
			h6.529v116.927c0,8.954,7.259,16.212,16.212,16.212c8.954,0,16.212-7.259,16.212-16.212V107.308
			C512,98.354,504.741,91.095,495.788,91.095z M423.687,448.822l-14.593-32.019h29.186L423.687,448.822z"/>
	</g>
</g>
<g>
	<g>
		<path d="M322.92,4.71H16.568C7.418,4.71,0,12.129,0,21.278v469.444c0,9.151,7.418,16.568,16.568,16.568h306.35
			c9.151,0,16.568-7.418,16.568-16.568V21.278C339.488,12.129,332.069,4.71,322.92,4.71z M287.933,180.336
			c0,9.151-7.418,16.568-16.568,16.568H68.124c-9.151,0-16.568-7.418-16.568-16.568c0-9.151,7.418-16.568,16.568-16.568h203.242
			C280.515,163.768,287.933,171.187,287.933,180.336z M287.933,259.13c0,9.151-7.418,16.568-16.568,16.568H68.124
			c-9.151,0-16.568-7.418-16.568-16.568c0-9.151,7.418-16.568,16.568-16.568h203.242
			C280.515,242.561,287.933,249.979,287.933,259.13z M65.541,66.566h98.307c9.151,0,16.568,7.418,16.568,16.568
			s-7.418,16.568-16.568,16.568H65.541c-9.151,0-16.568-7.418-16.568-16.568S56.391,66.566,65.541,66.566z M51.554,337.923
			c0-9.151,7.418-16.568,16.568-16.568h203.242c9.151,0,16.568,7.418,16.568,16.568c0,9.151-7.418,16.568-16.568,16.568H68.124
			C58.973,354.491,51.554,347.073,51.554,337.923z M321.623,428.822l-59.114,59.114c-4.744,4.745-11.875,6.152-18.056,3.592
			c-6.191-2.565-10.228-8.605-10.228-15.308v-59.114c0-9.151,7.418-16.568,16.568-16.568h59.114c6.701,0,12.743,4.036,15.308,10.229
			C327.778,416.957,326.361,424.084,321.623,428.822z"/>
	</g>
</g>
<g>
</g>
<g>
</g>
<g>
</g>
<g>
</g>
<g>
</g>
<g>
</g>
<g>
</g>
<g>
</g>
<g>
</g>
<g>
</g>
<g>
</g>
<g>
</g>
<g>
</g>
<g>
</g>
<g>
</g>
</svg>
